<svg width="43" height="43" viewBox="0 0 43 43" fill="none" xmlns="http://www.w3.org/2000/svg">
<path d="M30.75 20.8542C30.7536 22.2291 30.4324 23.5853 29.8125 24.8125C29.0775 26.2831 27.9477 27.52 26.5494 28.3847C25.1512 29.2494 23.5398 29.7077 21.8958 29.7084C20.521 29.7119 19.1647 29.3907 17.9375 28.7709L12 30.75L13.9792 24.8125C13.3593 23.5853 13.0381 22.2291 13.0417 20.8542C13.0423 19.2102 13.5006 17.5988 14.3653 16.2006C15.23 14.8024 16.4669 13.6725 17.9375 12.9375C19.1647 12.3177 20.521 11.9964 21.8958 12H22.4167C24.5879 12.1198 26.6386 13.0362 28.1762 14.5738C29.7138 16.1114 30.6302 18.1622 30.75 20.3334V20.8542Z" stroke="#B0B0B0" stroke-width="2" stroke-linecap="round" stroke-linejoin="round"/>
<circle cx="21.5" cy="21.5" r="21" stroke="#B0B0B0"/>
</svg>
