<svg width="43" height="43" viewBox="0 0 43 43" fill="none" xmlns="http://www.w3.org/2000/svg">
<path d="M26.75 11H16.25C13.3505 11 11 13.3505 11 16.25V26.75C11 29.6495 13.3505 32 16.25 32H26.75C29.6495 32 32 29.6495 32 26.75V16.25C32 13.3505 29.6495 11 26.75 11Z" stroke="#B0B0B0" stroke-width="2" stroke-linecap="round" stroke-linejoin="round"/>
<path d="M25.7 20.8385C25.8296 21.7124 25.6804 22.6048 25.2735 23.389C24.8666 24.1731 24.2228 24.809 23.4337 25.2062C22.6446 25.6033 21.7504 25.7416 20.8782 25.6012C20.006 25.4609 19.2003 25.0491 18.5756 24.4244C17.9509 23.7997 17.5392 22.994 17.3988 22.1218C17.2585 21.2496 17.3967 20.3554 17.7939 19.5663C18.1911 18.7772 18.8269 18.1334 19.6111 17.7265C20.3952 17.3197 21.2877 17.1704 22.1615 17.3C23.0529 17.4322 23.8781 17.8475 24.5153 18.4847C25.1525 19.1219 25.5679 19.9471 25.7 20.8385Z" stroke="#B0B0B0" stroke-width="2" stroke-linecap="round" stroke-linejoin="round"/>
<path d="M27.2749 15.725H27.2849" stroke="#B0B0B0" stroke-width="2" stroke-linecap="round" stroke-linejoin="round"/>
<circle cx="21.5" cy="21.5" r="21" stroke="#B0B0B0"/>
</svg>
