<svg width="43" height="43" viewBox="0 0 43 43" fill="none" xmlns="http://www.w3.org/2000/svg">
<path fill-rule="evenodd" clip-rule="evenodd" d="M43 21.5C43 21.9257 42.9876 22.3484 42.9632 22.768H41.3209C41.2089 22.768 41.1109 22.824 41.0269 22.936L34.4329 32.932V22.978C34.4329 22.838 34.3769 22.768 34.2649 22.768H29.5609C29.4489 22.768 29.3929 22.838 29.3929 22.978L29.3388 41.5262C28.2666 41.9463 27.1525 42.2827 26.0044 42.5274V31.084C26.0044 29.544 25.6264 28.144 24.8704 26.884C24.1144 25.596 23.0924 24.574 21.8044 23.818C20.5444 23.062 19.1444 22.698 17.6044 22.726L9.75036 22.768C9.63836 22.768 9.58236 22.824 9.58236 22.936L9.53453 39.3654C8.16346 38.4453 6.90415 37.3716 5.78126 36.1688L5.762 22.936C5.762 22.824 5.706 22.768 5.594 22.768H0.89C0.778 22.768 0.722 22.824 0.722 22.936L0.716051 27.0232C0.248909 25.2607 0 23.4094 0 21.5C0 20.6544 0.0488193 19.8202 0.143793 19H22V14H1.34433C4.38788 5.82403 12.2638 0 21.5 0C33.3741 0 43 9.62588 43 21.5ZM20.9224 31.042V42.9924C18.7283 42.9345 16.6161 42.548 14.6333 41.8801L14.6644 27.808L17.6044 27.766C18.5004 27.738 19.2704 28.06 19.9144 28.732C20.5864 29.376 20.9224 30.146 20.9224 31.042Z" fill="#7F4AEF"/>
</svg>
